# xmcd
#
# Track frame offsets:
#	150
#	17885
#	33096
#	47771
#	64946
#	76771
#	91271
#	103312
#	118540
#	129713
#	144722
#	153493
#
# Disc length: 2230 seconds
#
# Revision: 1
# Processed by: cddbd v1.5.2PL0 Copyright (c) Steve Scherf et al.
# Submitted via: audiograbber 1.83.01
#
DISCID=9e08b40c
DTITLE=Tommy Webb - Now That You Are Gone
DYEAR=2006
DGENRE=Bluegrass
TTITLE0=Headin' West
TTITLE1=God Gave You To Me
TTITLE2=Now That You Are Gone
TTITLE3=Hard Roe To Hoe
TTITLE4=Wildwood Flowers Blues
TTITLE5=All The Way
TTITLE6=Mary Jane
TTITLE7=Lonesome Old Town
TTITLE8=Katy-did
TTITLE9=Trade The Old Cross For A Crown
TTITLE10=Lonesome
TTITLE11=All That's Left For Me
EXTD=THE BAND\nTommy Webb - guitar, vocals\nChris Goble - banjo, vocals\nRon St
EXTD=ewart - mandolin, fiddle, guitar, banjo\nHarold Nixon - acoustic bass\n\nR
EXTD=ecorded and mastered at:\nThe Sleepy Valley Barn - Paoli, IN
EXTT0=
EXTT1=
EXTT2=
EXTT3=
EXTT4=
EXTT5=
EXTT6=
EXTT7=
EXTT8=
EXTT9=
EXTT10=
EXTT11=
PLAYORDER=
